<?xml version="1.0" encoding="utf-8"?>
<svg xmlns="http://www.w3.org/2000/svg" viewBox="0 0 300 328"><rect x="0" y="0" width="300" height="328" stroke="#46aaf8" fill="#46aaf8" /><g transform="scale(0.8) translate(30, 33)"><path d="M214.2,35.4c-45.35,0-95.94,11.87-134.62,40.13-3.74,2.29-6.69,6.75-5.25,14.19,0.78,3.71,3.76,20.06,7.47,29,3,7.44,10.41,7.44,14.86,4.48,23.83-16.36,70.68-34.94,111.58-34.94,42.44,0,43.17,20.81,43.17,53.53V170c-64,8.23-155.48,25.34-178.52,35-26.07,11.92-22.34,68.47-22.34,81.86s11.17,76.64,91.51,76.64c35,0,83.3-15.62,112.31-31.27v18.62c0,2.22,1.51,6,4.49,6.7,2.24,0.73,37.19,1.49,43.88,1.49s40.94-.76,43.91-1.49,3.72-4.47,3.72-6.7V133.58c0-58.79-37.92-98.18-136.17-98.18m-64,239.54c0-8.93-2.22-31.27,13.43-38.72,17.83-9.65,55-21.55,87.76-24.53v78.13c-15.68,9.66-35.69,17.84-58,17.84-38.69,0-43.15-24.55-43.15-32.73" fill="#fff" transform="translate(-50.36 -35.4)" /></g></svg>